<svg xmlns="http://www.w3.org/2000/svg" width="960" height="540" viewBox="0 0 960 540">
 <defs>
  <linearGradient id="sky" x2="0" y2="1"><stop stop-color="#151d3c"/><stop offset=".7" stop-color="#656691"/><stop offset="1" stop-color="#d3a6a9"/></linearGradient>
  <linearGradient id="near" x2="0" y2="1"><stop stop-color="#3e5275"/><stop offset="1" stop-color="#182541"/></linearGradient>
 </defs>
 <rect width="960" height="540" fill="url(#sky)"/>
 <g fill="#fff" opacity=".65"><circle cx="89" cy="72" r="2"/><circle cx="310" cy="110" r="1.5"/><circle cx="658" cy="61" r="2"/><circle cx="831" cy="117" r="1.8"/><circle cx="578" cy="151" r="1"/><circle cx="737" cy="194" r="1"/><circle cx="223" cy="40" r="1"/></g>
 <circle cx="742" cy="185" r="54" fill="#f2d9c6"/>
 <path d="M0 310L120 215L238 332L353 240L501 369L636 278L798 339L960 210V540H0Z" fill="#74799e"/>
 <path d="M0 395L192 291L360 396L475 318L631 435L758 331L960 444V540H0Z" fill="#4e628a"/>
 <path d="M0 465L106 390L279 489L431 405L666 499L869 415L960 453V540H0Z" fill="url(#near)"/>
 <g fill="none" stroke="#e2e8f5" opacity=".15"><rect x="20" y="20" width="920" height="500" rx="4"/><path d="M480 20V520M20 270H940"/></g>
 <text x="44" y="488" font-family="sans-serif" font-size="14" letter-spacing="3" fill="#dae1f3">WALLPAPER + PARALLAX</text>
</svg>
